<svg xmlns="http://www.w3.org/2000/svg" viewBox="0 0 240 240">
  <circle cx="120" cy="120" r="120" fill="#F7F4EC"/>
  <g fill="none">
    <path d="M156.94 18.51A108 108 0 1 1 83.06 18.51" stroke="#14452F" stroke-width="5" stroke-linecap="round" transform="translate(12 12) scale(0.9)"/>
    <g transform="translate(12 12) scale(0.9)">
      <path d="M0 0Q7 -10.1 0 -24Q-7 -10.1 0 0Z" fill="#14452F" transform="translate(120 26)"/>
      <path d="M0 0Q5.5 -8 0 -19Q-5.5 -8 0 0Z" fill="#B9944A" transform="translate(112.5 27) rotate(-35)"/>
      <path d="M0 0Q5.5 -8 0 -19Q-5.5 -8 0 0Z" fill="#B9944A" transform="translate(127.5 27) rotate(35)"/>
      <g stroke="#14452F" stroke-width="13"><rect x="38" y="90" width="164" height="60" rx="30" fill="none" transform="rotate(45 120 120)"/></g>
      <g stroke="#F7F4EC" stroke-width="23"><rect x="38" y="90" width="164" height="60" rx="30" fill="none" transform="rotate(-45 120 120)"/></g>
      <g stroke="#14452F" stroke-width="13"><rect x="38" y="90" width="164" height="60" rx="30" fill="none" transform="rotate(-45 120 120)"/></g>
      <g transform="rotate(45 120 120)">
        <line x1="72" y1="90" x2="106" y2="90" stroke="#F7F4EC" stroke-width="23"/>
        <line x1="134" y1="150" x2="168" y2="150" stroke="#F7F4EC" stroke-width="23"/>
        <line x1="72" y1="90" x2="106" y2="90" stroke="#14452F" stroke-width="13"/>
        <line x1="134" y1="150" x2="168" y2="150" stroke="#14452F" stroke-width="13"/>
      </g>
      <rect x="115" y="107" width="10" height="26" rx="5" fill="#B9944A"/>
      <rect x="107" y="115" width="26" height="10" rx="5" fill="#B9944A"/>
    </g>
  </g>
</svg>
